<?xml version="1.0" encoding="utf-8"?>
<!-- Generator: Adobe Illustrator 21.1.0, SVG Export Plug-In . SVG Version: 6.00 Build 0)  -->
<svg version="1.1" xmlns="http://www.w3.org/2000/svg" xmlns:xlink="http://www.w3.org/1999/xlink" x="0px" y="0px"
	 viewBox="0 0 682.6 853.8" style="enable-background:new 0 0 682.6 853.8;" xml:space="preserve">
<style type="text/css">
	.st0{fill:#FFFFFF;}
	.st1{fill:url(#SVGID_1_);}
	.st2{fill:url(#SVGID_2_);}
	.st3{fill:#FFE147;}
	.st4{fill:url(#SVGID_3_);}
	.st5{fill:url(#SVGID_4_);}
	.st6{fill:#56FECE;}
	.st7{fill:#226D20;}
	.st8{fill:#5D7C03;}
	.st9{fill:#7AA302;}
	.st10{fill:#456808;}
	.st11{fill:#8B0CAA;}
	.st12{fill:#39990D;}
	.st13{fill:#F00688;}
</style>
<g id="left_tombstone_1_">
	<path id="white_outline_left_tombstone" class="st0" d="M321.9,79.5c-21-24-36.6-49.3-51.7-52.9c-25.2-6-111.3,12.4-123,25.4
		c-15.9,17.7-45.6,79.7-48.3,100.3c-1,7.6,37.6,179.7,37.6,179.7s90.2,53.3,164.4,14.7s16.9-267.2,16.9-267.2"/>
	<g id="left_tombstone_2_">
		<linearGradient id="SVGID_1_" gradientUnits="userSpaceOnUse" x1="166.6107" y1="75.7501" x2="334.4548" y2="460.4621">
			<stop  offset="0" style="stop-color:#D84F8C"/>
			<stop  offset="0.2479" style="stop-color:#D81A8C"/>
			<stop  offset="0.9052" style="stop-color:#AF1A60"/>
		</linearGradient>
		<path class="st1" d="M162.3,385.2c0,0-42.6-213.6-42.6-229.4s31.6-85.2,42.6-93.4S246.1,39,259.8,39c13.7,0,57.7,63.2,57.7,63.2
			l31.5,283H162.3z"/>
	</g>
	<g id="yellow_character">
		<linearGradient id="SVGID_2_" gradientUnits="userSpaceOnUse" x1="230.5682" y1="191.1394" x2="244.855" y2="347.6439">
			<stop  offset="0.2479" style="stop-color:#FFE147"/>
			<stop  offset="0.9068" style="stop-color:#FFBE47"/>
		</linearGradient>
		<polygon class="st2" points="199.7,201 253.6,192.2 281.2,347.6 209.5,359.1 		"/>
		<circle class="st3" cx="220.3" cy="136.6" r="36.1"/>
	</g>
</g>
<g id="right_tombstone_1_">
	<path id="white_outline_right_tombstone" class="st0" d="M518.6,361.4c-0.3-18.8,6.3-33.2,17.3-90.2s26.1-153.9,24.7-164.2
		c-1.4-10.3-32.3-75.6-50.1-81.1c-17.9-5.5-97.1-18.5-110-15.1c-12.9,3.4-80.5,44-82.8,60.4c-2.3,16.5-14.9,263-14.9,263
		S488.3,366.4,518.6,361.4"/>
	<g id="right_tombstone">
		<linearGradient id="SVGID_3_" gradientUnits="userSpaceOnUse" x1="422.3148" y1="142.5067" x2="421.3203" y2="380.4798">
			<stop  offset="1.318109e-02" style="stop-color:#D81B8C"/>
			<stop  offset="0.2479" style="stop-color:#D81A8C"/>
			<stop  offset="1" style="stop-color:#A61A60"/>
		</linearGradient>
		<path class="st4" d="M332.7,82.1c7.5-15.7,48.7-44.4,61.9-50s85,1.9,97.7,8.1c12.7,6.2,48.7,54.4,48.5,73.3
			c-0.2,18.9-44.4,263.7-41.2,267.5c3.2,3.8-196.7,8.7-196.7,8.7S325.1,97.8,332.7,82.1z"/>
	</g>
	<g id="teal_character">
		<linearGradient id="SVGID_4_" gradientUnits="userSpaceOnUse" x1="410.1824" y1="179.4161" x2="397.2516" y2="367.0388">
			<stop  offset="0.1986" style="stop-color:#56FECE"/>
			<stop  offset="1" style="stop-color:#31D0CE"/>
		</linearGradient>
		<polygon class="st5" points="397,186.7 449.8,194.9 437.9,343.9 358.1,343.9 		"/>
		
			<ellipse transform="matrix(0.9935 -0.114 0.114 0.9935 -12.656 49.5974)" class="st6" cx="427.5" cy="135.5" rx="36.1" ry="36.1"/>
	</g>
</g>
<g id="grass_2_">
	<g id="grass_white_outline">
		<g>
			<path class="st0" d="M556.2,390.5c2.2-7.1,0-17.2,5.5-34.4c3.3-10.2,10.5-20.7,10.5-20.7l8.2-11.3c-6.2-4.6-20.6-8.5-32.5-4.4
				c-8.8,3.1-9.3-3.4-9.3-3.4c-1.1-11.8-5.2-29.6-11.8-29.6c-13.4,0-22.2,75.8-22.2,75.8l41.6,48
				C546.3,410.6,553.1,400.7,556.2,390.5z"/>
			<path class="st0" d="M137.5,311.7c0,0-1.7-8.8-17.9-10.3c-8.9-0.9-24.9,3.1-24.9,3.1s7.8,8.2,14,19l-1.7,1.3c0,0-5.9-0.2-12.3,0
				c-14,0.5-28.6,6.6-28.6,6.6s37.4,27.8,41.9,52c3.8,20.5,30.2,27.2,30.2,27.2s33.8,4.6,39.8,0
				C184.1,406.1,155.4,317.9,137.5,311.7z"/>
			<path class="st0" d="M169.1,412.7l377.1-2c0,0,1.4-35.7-30.9-38.5s-365.4-5.5-373.7,13.1C133.4,403.8,147.2,412.7,169.1,412.7z"
				/>
		</g>
	</g>
	<path id="far_left_grass" class="st7" d="M116.9,319.2c0,0,6.2-4.1,22.7,4.2c16.5,8.2,25.8,23.7,25.8,23.7s-0.5-5.6,0-23.7
		c0.5-18.1,6.2-27.3,6.2-27.3s4.6,7.2,7.2,25.5c2.6,18.3,4.1,25.5,4.1,25.5s-0.5-18.5,2.6-32.5c3.1-13.9,6.2-27.8,6.2-27.8
		s10.8,9.3,14.4,30.1c3.6,20.9,0,14.2,0,14.2s-5,4.7,3.1-11.3s24.7-28.3,24.7-28.3s2.1,6.7-2.6,25.5c-4.6,18.8-1,27.4-1,27.4
		s-6.2,7.4,7.2-5.5c13.4-12.9,27.8-21.9,27.8-21.9s-0.3,19.9-2.8,29.1s-9.5,9.7-5.9,9.2c3.6-0.5,24.7-7.7,24.7-7.7
		s-22.7,19.7-20.1,29.4s10.7,13.8-5.3,18.7c0,0-75.1,4-92,3.6c-16.6-0.4-22.2-4.9-22.2-4.9s-7.1-24.3-19.7-33.6
		c-15.6-11.5-26.5-20.2-26.5-20.2s20.6-1.6,33,4.1c12.4,5.7,15.8,8.6,15.8,8.6s1.5-5.7-10.3-16S116.9,319.2,116.9,319.2z"/>
	<path id="mid_left_grass" class="st8" d="M320.1,286.8c0,0,10.7-1.5,16.2,12.5c5.5,14,10.1,34.9,10.1,34.9s3.6-16,9.8-24.7
		c6.2-8.8,14.9-18.5,14.9-18.5s-7.7,25.2-6.7,37.6c1,12.4,6.7,19.1,6.7,19.1s-1-11.8,7.5-20.1c8.5-8.2,21.9-7.7,21.9-7.7
		s-19.1,17.5-17.5,30.4c1.5,12.9,9.5,44.7,9.5,44.7s-53.7,0.8-102.5,0.8c-47.1,0-60.4,0.6-60.4,0.6s16.4-30.7,1.9-45.1
		c-14.4-14.4-30.4-24.7-30.4-24.7s28.3-5.4,42.8,8.6c14.4,14,13.9,8.9,14.4,6.8c0.5-2.1-2.6-6.2-8.5-18.4c-2.3-4.8-7-21.8-7-21.8
		s10.4,1.4,18.2,10.3c13.4,15.4,24.6,20.1,24.6,20.1s-5.7-1-2.1-25.2c3.6-24.2,22.2-43.3,22.2-43.3s-1.5,6.7-0.5,26.3
		s6.7,33.6,6.7,33.6s5.7-2.2,6.2-15.6C318.6,294.6,320.1,286.8,320.1,286.8z"/>
	<g id="mid_right_grass">
		<path class="st9" d="M463.5,394.4c2.2-13.8,12.5-60.8,17.6-66.5c5.2-5.7,8.2-12.4,8.2-12.4s-11.3-0.5-23.2,4.6
			c-11.8,5.2-19.1,14.7-19.1,14.7s-0.5-10.6,5.7-19.3c6.2-8.7,9.8-10.8,9.8-10.8s-15.5,2.1-25.8,14.4
			c-10.3,12.4-13.4,17.5-13.4,17.5s-2.1-18,3.1-31.9c5.2-13.9,9.8-24.2,9.8-24.2s-18.5,9.3-27.3,27.8s-8.8,18.5-8.8,18.5
			s1-14.4-9.3-36.6c-10.3-22.2-16-28.3-16-28.3s3.1,30.4,0,46.1c-3.1,15.7-6.7,11.1-6.7,11.1s-6.2,6.7-4.1-17
			c2.1-23.7,4.1-28.9,4.1-28.9s-20.6,20.1-21.1,39.7s0,22.7,0,22.7s-2.1-7.7-22.7-20.6c-20.6-12.9-28.9-16.5-28.9-16.5
			s19.6,27.3,21.6,43.3c2.1,16,4.5,53.9,4.5,53.9s22.7,0,41.7-0.2C395.5,395.2,463.5,394.4,463.5,394.4z"/>
	</g>
	<path id="far_right_grass" class="st10" d="M473.3,291.8c0,0,14.4,11.8,18.5,29.4C496,338.7,498,348,498,348s-0.5-6.2,4.6-20.1
		c5.2-13.9,17.5-25.2,17.5-28.3c0,0,1.6,21,1.1,29.3c-0.7,10.6,2,17.2,2,17.2s1.3,2,5.4-2.3c7.1-7.3,26.6-9.7,26.6-9.7
		s-12.9,12.8-15.5,27.3c-2.6,14.4-9.8,34.3-9.8,34.3s-110.8-1.5-114.4-1c0,0-6.2-23.2-15.4-32.8c-10.1-10.5-12.9-9.8-12.9-9.8
		s17-8.2,25.8-2.1s7.7,4.6,7.7,4.6s1,0-6.7-12.4c-7.7-12.4-10.3-19.1-10.3-19.1s18-1,26.3,6.2s11.8,15.5,11.8,15.5s-3.1-3.6,2.6-18
		c5.7-14.4,20.1-24.2,20.1-24.2s-2.9,13.4-2.6,18c1,13.4,6.2,22.2,6.2,22.2s7.7-14.9,6.7-27.8C473.8,302.1,473.3,291.8,473.3,291.8z
		"/>
</g>
<g id="LOVE_IS_white_outline">
	<path id="S_white_outline" class="st0" d="M594.3,363.6c-29.6-2.5-55.3-0.7-65.9,11.3s-22,32.6-13.4,55s-7.9,18.2-14.8,35.7
		c-6.9,17.5-10.3,49.5,29.2,55.3s67.7,6.9,87.6-16.2s22.3-42.3,14.8-61.4s-7.6-10.8-2.4-29C634.5,396.2,648.3,368,594.3,363.6z"/>
	<path id="i_white_outline" class="st0" d="M495.1,352.2c-20.2-1.7-32.3,7.6-41.2,24c-8.9,16.5-5.5,30.2-1.7,39.2
		c3.8,8.9,3.4,21,2.1,34c-1.4,13.1-16.6,56.8,6.5,68c25.4,12.4,52.5,7.2,65.1-1.7s18-15.8,12.9-46.4c-5.2-30.6-14.8-38.5-8.2-64.9
		C537,378,535.6,355.7,495.1,352.2z"/>
	<path id="E_white_outline" class="st0" d="M375.2,359.1c19.4-5,48.2-2.7,72.5,24.4c17.2,19.2,14.4,32.6,14.4,55
		c0.1,36.8-4.5,65.3-43.4,76.9c-39,11.7-67.1,3.1-80.9-10c-13.7-13.1-26.8-50.1-16.1-88.6C332.3,378.4,351.2,365.2,375.2,359.1z"/>
	<path id="V_white_outline" class="st0" d="M243.7,375.3c8.2-4.9,18.9-12.7,30.9-8.6c12,4.1,10.6,7.6,13.7,5.5
		c3.1-2.1,5.8-13.7,23.7-13.1s34,8.2,41.6,12s17.2,9.8,13.1,27.1c-4.1,17.2-18.2,89.4-22.3,101c-4.1,11.7-6.9,30.2-50.5,26.6
		s-38.1-2.9-47.7-24.2c-9.6-21.3-23-60.8-27.8-80C213.4,402.4,227.2,385.2,243.7,375.3z"/>
	<path id="O_white_outline" class="st0" d="M156.3,375.6c11.1-10.1,22.8-12.9,47.6-10.1c24.7,2.9,47.4,18.8,52.5,41.5
		c5.2,22.7,7.2,62.3,0,87.6c-7.2,25.2-41.7,30.9-59.2,30.9s-73,7.7-77.5-54.1C115.2,409.6,138.1,392.1,156.3,375.6z"/>
	<path id="L_white_outline" class="st0" d="M85,349.8c-25.2-0.3-35.9,4.1-42.5,15.7c-6.6,11.6-0.4,47.2,1.1,83.8
		c1.5,36.6-2.6,74.2,20.3,82.9c22.9,8.8,53.3,3.1,71.9,0s21.6-7.2,20.1-35.5c-1.5-28.3,1.5-48.3-13.9-49.6
		c-15.5-1.4-10.3-11.2-11.3-22c-1-10.8,1-58.2-13.9-67S85,349.8,85,349.8z"/>
</g>
<g id="DEAD_white_outline">
	<path id="white_D" class="st0" d="M595,835.2c13.7-9.6,16.5-17.9,34.3-39.8c17.9-22,20.6-24.7,19.9-41.2
		c-0.7-16.5-4.1-119.5-4.1-140.8c0-21.3,1-33-9.4-50.1c-10.5-17.2-20.1-62.8-45.5-65.4c-25.4-2.6-98.9-21.4-117.5,3.8
		c-18.5,25.2-11.4,234.7-10.5,264.9c0.9,30.2-1.3,54.9,27.7,72.4"/>
	<path id="white_A" class="st0" d="M322.3,825.5c6,10,15.8,16.4,41.9,13.3c26.1-3,33.7-2,38.5-6.3c4.8-4.3,6.6-5,11-5
		c1.6,0,4.6-0.3,8.1,3c4.6,4.4,28.7,11,68.1,8.3c16.1-1.1,24.7-16.1,13.7-103.3c-11-87.2-5.7-235.8-30.9-238.1
		c-25.2-2.3-119.1,5.9-123.8,19.7c-4.7,13.7-15,122.3-17.7,162.1C328.5,719.1,311.3,807,322.3,825.5z"/>
	<path id="white_E" class="st0" d="M330.6,501.6c-25.9-4.1-109.9-5.9-124.3,0c-14.4,5.9-26.1,7.3-30.9,31.4
		c-4.8,24-0.7,205.4,0,230.8c0.7,25.4-0.7,31.6,19.9,52.2c20.6,20.6,24.7,29.5,49.5,26.1c24.7-3.4,83.8-8.9,95.5-17.9
		c11.7-8.9,19.2-16.5,15.8-61.8c-3.4-45.3,0.8-161.9,0.7-184.8C356.6,536.9,367.6,507.5,330.6,501.6z"/>
	<path id="white_D_left" class="st0" d="M52.4,511.6c-15.6,10.9-9.6,23.4-9.6,87.9s-4.1,210.9,2.1,223.9
		c6.2,13.1,10.3,16.5,50.1,15.1c39.8-1.4,65.9,2.7,76.9-8.9c0,0,44.1-41.9,45.4-57.7c1.3-15.8-0.7-182.7-3.5-202.6
		s-14.4-63.9-57.5-66.6C112.7,499.9,66.1,502,52.4,511.6z"/>
</g>
<g id="DEAD_purple_letters">
	<path id="purple_D_right" class="st11" d="M499.6,814.7l-1.4-281.6l90-7.9l29.4,57.5l6.2,181l-40,48.2L499.6,814.7z M570.8,757.2
		l14.4-24.6l-7.5-104.7l-13.7-17.1l-18.5,5.5l2.4,140.6L570.8,757.2z"/>
	<path id="purple_A" class="st11" d="M340.7,812.6l21.2-242.2l21.2-37.6l65.7-11.6l30.1,292.2l-50.6-8.9l-3.8-79.7l-29.4,4.4
		l-4.4,80.1L340.7,812.6z M421.1,686.4l-4.4-74.2l-15.1,3.4l-4.4,73.2L421.1,686.4z"/>
	<path id="purple_E" class="st11" d="M234.6,817.4l-30.1-25.7l3.8-259l114.6-8.2l4.4,80.4l-70.8,10.6l-0.3,39l64-5.5l-4.1,51.3
		l-59.9,2.7l-1,48.2l67.7-10.6l5.5,63.3L234.6,817.4z"/>
	<path id="purple_D_left" class="st11" d="M67.3,814.7L66,533.1l90-7.9l29.4,57.5l6.2,181l-40,48.2L67.3,814.7z M138.5,757.2
		l14.4-24.6l-7.5-104.7l-13.7-17.1l-18.5,5.5l2.4,140.6L138.5,757.2z"/>
</g>
<g id="green_spots_1_">
	<g id="D_right_green_spots">
		<path class="st12" d="M556,568.6c2.4,8.3-1,17.6-11.7,20.7s-18-1.1-20.4-9.5c-2.4-8.3,1-17.6,11.7-20.7S553.6,560.2,556,568.6z"/>
		<path class="st12" d="M608.3,564.8c0,0-34.6,15.6-25.3,42.5c9.3,26.9,36.1,23.2,36.1,23.2l-1.4-47.9L608.3,564.8z"/>
		<path class="st12" d="M622.3,721c0,0-14.6,3.1-13.5,24.3c0.7,14.5,14.9,18,14.9,18L622.3,721z"/>
		
			<ellipse transform="matrix(0.2044 -0.9789 0.9789 0.2044 -315.5025 1183.3247)" class="st12" cx="570.2" cy="785.8" rx="16.6" ry="13.7"/>
		<path class="st12" d="M546.7,689.9c0,0-18.6-8.3-32.7-1.7c-14.2,6.6-14.8,14.3-14.8,14.3l0.2,51.5c0,0,9.2,11.6,37.3,6.3
			c8.8-1.7,11.1-8.4,11.1-8.4L546.7,689.9z"/>
	</g>
	<g id="A_green_spots">
		<path class="st12" d="M425.6,747.8c0,0,21.7-8.8,27.9,7.6s1.1,30.3-6.6,35.7c-7.7,5.4-19,3.5-19,3.5L425.6,747.8z"/>
		<path class="st12" d="M351.8,685.5c0,0,9.6-12.4,31.6-4.5c18.2,6.5,19.2,29.2,18.3,38.2c-0.5,5.2-3.6,9.5-3.6,9.5
			s-3.1,0.5-3.1,0.5l-0.2,2.7c0,0-7.2,13.7-27.3,13.6c-12.5,0-20.2-9.4-20.2-9.4L351.8,685.5z"/>
		<path class="st12" d="M363.2,568c0,0,15.4,24.6,44.6,11.6c29.2-13.1,18-54.1,4.8-52.1l-29.5,5.2L363.2,568z"/>
		<path class="st12" d="M441.3,638c-16.3,0.1-17.2,26.8-5.8,29.7c12.6,3.1,22-4.2,20.7-15.1C455.1,644.3,451.6,637.9,441.3,638z"/>
	</g>
	<g id="E_green_spots">
		<path class="st12" d="M246.1,601.3c0,11.6-6.7,17.6-15,17.6s-15-6-15-17.6s6.7-17.6,15-17.6S246.1,589.7,246.1,601.3z"/>
		<path class="st12" d="M240.9,530.3c0,0-2.4,38,38.8,34.6c36.9-3,33.4-39.8,33.4-39.8L240.9,530.3z"/>
		<path class="st12" d="M298.6,674.4c-14.9,2.1-20,8.8-22.4,16.4c-1.7,5.4,0.1,11.4,0.1,11.4l39.7-1.8l1.4-17.9
			C317.5,682.4,311,672.7,298.6,674.4z"/>
		<path class="st12" d="M247.3,765.6c-10.9,2.9-17.2,13.2-15.3,25.4c1.9,12.2,8,19.5,15.3,21.7c6.2,1.9,9.5,1.4,9.5,1.4l13.5-1.9
			c0,0,13.1-11.4,11.1-24C278.7,772.6,267.5,760.3,247.3,765.6z"/>
		<path class="st12" d="M324.4,758c0,0-9-2.2-11.8,4.9s0.4,12.8,5.8,14.7s7.6-1.3,7.6-1.3L324.4,758z"/>
	</g>
	<g id="D_left_green_spots">
		<path class="st12" d="M66.1,589.9c0,0,27.5,11,41.2-8.2c13.7-19.2,1-44.8-20.6-44.8c-23.2,0-20.6,4.6-20.6,4.6V589.9z"/>
		<circle class="st12" cx="156.3" cy="587.9" r="16.8"/>
		<path class="st12" d="M114.2,680.9c0,0-19.8-0.9-24.4,15.1c-4.6,16,4.6,31.4,16.5,33.5c8.8,1.5,8.8,1.5,8.8,1.5L114.2,680.9z"/>
		<path class="st12" d="M189.2,696.4c0,0-12.2-0.4-13.5,13c-1.3,13.4,14.3,12.5,14.3,12.5L189.2,696.4z"/>
		<path class="st12" d="M134.3,773.1c-11.7,2.5-18.3,15.7-18,27c0.3,11.3,5.1,12.6,5.1,12.6l30.2-0.9l15.8-19.1
			C167.3,792.8,162.1,767.2,134.3,773.1z"/>
	</g>
</g>
<g id="LOVE_IS_pink_letters">
	<path id="S_pink_letter" class="st13" d="M521.3,489.3l12.3-28c15.8,10.3,28,15.4,36.6,15.4c3.1,0,6-0.9,8.9-2.7
		c3.2-2,4.8-4.5,4.8-7.4c0-4.4-5.9-8.1-17.6-11.1c-17-4.3-28.4-13.2-34.2-26.7c-2-4.5-2.9-8.6-2.9-12.3c0-8,4.1-15,12.3-21
		c7-5.2,17.5-7.7,31.5-7.7c9.8,0,21.4,1.3,34.7,3.9l-8.9,26.8c-10.1-4.5-18.3-6.8-24.6-6.8c-3.1,0-6,0.7-8.7,2c-3.3,1.6-5,3.8-5,6.5
		c0,2.5,2.2,5.2,6.7,8.1c3.1,2,9.1,4.7,18,8.2c7.5,2.9,13,5.9,16.3,8.8c4.9,4.3,7.5,10,7.7,17.2c0.5,11.8-5,22.5-16.5,32.2
		c-4.9,4.1-12,6.2-21.5,6.2C558.8,500.5,542.1,496.7,521.3,489.3z"/>
	<path id="i_pink_letter" class="st13" d="M496,377.1c1.5,0,2.9,0.2,4.2,0.6c5.9,2,9.7,5.6,11.5,10.9c0.6,1.6,0.8,3.2,0.8,4.8
		c0,3.6-0.9,7.6-3.8,11.1c-4.1,5-9.3,6.7-14.7,6.2c-5.4-0.5-9.7-3.4-13.1-8.7c-1.5-2.4-2.3-4.9-2.3-7.4c0-3.2,1.1-6.6,3.3-10.2
		C486.7,379.6,491.4,377.1,496,377.1z M511.9,421.7c-1.1,25.9-2.5,51.6-4.2,77l-26.8,2.5c1-10.9,1.5-21.9,1.5-33.2
		c0-14-0.8-28.1-2.3-42.5L511.9,421.7z"/>
	<path id="E_pink_letter" class="st13" d="M366.4,452.8c3.1,10.5,9.8,16,20,16.5c9.5,0.5,15.9-4.5,19.3-15l29.3-4.2
		c-7.5,30.6-22.3,45.9-44.5,45.9c-6.8,0-14.5-1.6-22.9-4.7c-15.6-8.9-23.4-26.1-23.4-51.5c0-2.2,0.1-4.6,0.2-7.2
		c1.5-29.4,15.8-46.4,42.9-51.2c25.7-0.6,40.5,17.3,44.4,53.5L366.4,452.8z M374.4,415.4c-3.9,4.6-6,10.1-6.3,16.6l39.2-11.2
		c-4.5-8.2-10.2-12.2-17-12.2C383.6,408.6,378.3,410.9,374.4,415.4z"/>
	<path id="V_pink_letter" class="st13" d="M241.5,404.1l27.6-13.4l24.3,86.2l16.7-92.9l28.5,8.4l-28.5,111.3l-32.7-0.8L241.5,404.1z
		"/>
	<path id="O_pink_letter" class="st13" d="M145.4,452.3c0.5-15.9,4.4-29.6,11.8-41c8.8-13.7,20.5-20.5,35.3-20.5
		c15.6,0,26.8,3.8,33.7,11.5c5.7,6.3,10.1,17.5,13.3,33.7c1.3,6.3,1.9,12.3,1.9,18c0,12.1-3,22.3-9,30.3
		c-8.8,11.9-22.2,17.5-40.1,17c-16.5-0.5-28.5-4.7-36.2-12.6C148.4,480.9,144.8,468.7,145.4,452.3z M206.9,427.2
		c-4.9-4.6-9.5-6.9-13.8-6.9c-5.3,0-10.2,3.5-14.7,10.5c-4,6.2-6,12.2-6,18.1c0,5.5,1.8,11.2,5.4,17c4,6.5,8.7,9.7,14,9.7
		c6.1,0,11.6-3.2,16.6-9.5c4.8-6,7.2-12.1,7.2-18.3C215.8,441,212.8,434.2,206.9,427.2z"/>
	<path id="L_pink_letter" class="st13" d="M99.1,379.9c-1.4,19.8-2.1,37.7-2.1,53.8c0,16,0.7,30.1,2.1,42.4l40.2-5l-0.8,31l-67,1.7
		l-4.2-125.6L99.1,379.9z"/>
</g>
</svg>
